<svg xmlns="http://www.w3.org/2000/svg" width="60" height="60" viewBox="0 0 60 60">
    <g fill="none" fill-rule="evenodd">
        <circle cx="30" cy="30" r="30" fill="#3a3a3a"/>
        <path fill="#FFF" fill-rule="nonzero" d="M21.627 39.313c.328.328.751.482 1.184.491.424 0 .857-.163 1.184-.49l6.478-6.479 6.478 6.478c.327.328.75.482 1.184.491.423 0 .857-.163 1.184-.49.654-.655.654-1.714 0-2.35l-6.478-6.477 6.478-6.478c.654-.655.654-1.713 0-2.349-.655-.654-1.713-.654-2.349 0l-6.478 6.478-6.478-6.478c-.654-.654-1.713-.654-2.348 0-.655.655-.655 1.714 0 2.349l6.478 6.478-6.478 6.478a1.617 1.617 0 0 0-.039 2.348z"/>
    </g>
</svg>
